<svg width="22" height="22" viewBox="0 0 22 22" fill="none" xmlns="http://www.w3.org/2000/svg">
<path d="M11.0001 -0.0234375C4.92195 -0.0234375 -0.0239258 4.92106 -0.0239258 10.9999C-0.0239258 17.0788 4.92195 22.0233 11.0001 22.0233C17.0783 22.0233 22.0242 17.0788 22.0242 10.9999C22.0242 4.92106 17.0783 -0.0234375 11.0001 -0.0234375ZM11.0001 21.2891C5.32689 21.2891 0.711699 16.6732 0.711699 10.9999C0.711699 5.32669 5.32689 0.710813 11.0001 0.710813C16.6734 0.710813 21.2886 5.32669 21.2886 10.9999C21.2886 16.6732 16.6734 21.2891 11.0001 21.2891Z" fill="#1D2B4F"/>
<path d="M13.4065 4.81228H11.5723C9.23613 4.78891 8.93775 6.23472 8.93775 7.79947V8.93728H7.9065C7.85989 8.93106 7.81247 8.93566 7.76793 8.95073C7.72339 8.96581 7.68292 8.99095 7.64967 9.0242C7.61641 9.05745 7.59128 9.09792 7.5762 9.14246C7.56113 9.187 7.55653 9.23442 7.56275 9.28103V11.3435C7.55653 11.3901 7.56113 11.4376 7.5762 11.4821C7.59128 11.5266 7.61641 11.5671 7.64967 11.6004C7.68292 11.6336 7.72339 11.6588 7.76793 11.6738C7.81247 11.6889 7.85989 11.6935 7.9065 11.6873H8.93775V16.8435C8.93202 16.8902 8.93704 16.9376 8.95243 16.9821C8.96781 17.0265 8.99316 17.0669 9.02652 17.1001C9.05989 17.1332 9.10039 17.1583 9.14494 17.1734C9.18949 17.1886 9.2369 17.1933 9.28356 17.1873H11.3839C11.5867 17.2107 11.751 17.0463 11.6864 16.8435L11.6878 11.6873H13.4065C13.4531 11.6935 13.5005 11.6889 13.5451 11.6738C13.5896 11.6588 13.6301 11.6336 13.6633 11.6004C13.6966 11.5671 13.7217 11.5266 13.7368 11.4821C13.7519 11.4376 13.7565 11.3901 13.7503 11.3435V9.28103C13.7565 9.23442 13.7519 9.187 13.7368 9.14246C13.7217 9.09792 13.6966 9.05745 13.6633 9.0242C13.6301 8.99095 13.5896 8.96581 13.5451 8.95073C13.5005 8.93566 13.4531 8.93106 13.4065 8.93728H11.6857L11.6878 7.90603C11.7544 7.46672 11.7544 7.53822 12.1621 7.56228H13.3921C13.4876 7.54097 13.5894 7.55266 13.6609 7.48322C13.7324 7.41378 13.7736 7.31891 13.7496 7.21853V5.15603C13.7559 5.10946 13.7514 5.06205 13.7364 5.0175C13.7214 4.97295 13.6964 4.93246 13.6632 4.89919C13.63 4.86592 13.5895 4.84077 13.545 4.8257C13.5005 4.81062 13.4531 4.80603 13.4065 4.81228ZM13.0387 6.83628L12.1766 6.80328C11.1089 6.80328 11.0195 7.38285 11.0195 7.97616L11.0168 9.27966C11.0167 9.32793 11.0261 9.37574 11.0445 9.42036C11.0629 9.46498 11.0899 9.50554 11.124 9.5397C11.1581 9.57386 11.1986 9.60097 11.2432 9.61946C11.2878 9.63795 11.3356 9.64747 11.3839 9.64747H13.0628V10.9757H11.3853C11.2878 10.9757 11.1944 11.0144 11.1254 11.0832C11.0565 11.152 11.0176 11.2454 11.0174 11.3428L11.0168 16.4998H9.62525V11.3435C9.62525 11.1407 9.48706 10.9764 9.28356 10.9764H8.25025V9.64816H9.28356C9.3318 9.64823 9.37958 9.6388 9.42417 9.6204C9.46877 9.60199 9.50929 9.57498 9.54344 9.54091C9.61219 9.47147 9.62456 9.37797 9.62456 9.28035V7.79878C9.62456 6.25741 9.936 5.52316 11.5716 5.52316H13.038L13.0387 6.83628Z" fill="#1D2B4F"/>
</svg>
