<svg width="22" height="22" viewBox="0 0 22 22" fill="none" xmlns="http://www.w3.org/2000/svg">
<g clip-path="url(#clip0_482_176)">
<path d="M13.4167 8.2168C12.9505 8.2168 12.6054 8.33436 12.3352 8.48286C12.2919 8.32886 12.1496 8.21611 11.9818 8.2498H9.93035C9.72754 8.21611 9.56322 8.38042 9.62579 8.59355V16.156C9.56322 16.3485 9.72754 16.5135 9.93035 16.4998H11.9818C12.1847 16.5135 12.349 16.3485 12.349 16.1457L12.3483 11.5752C12.3476 11.5732 12.34 11.3545 12.4782 11.204C12.5889 11.0844 12.7793 11.0232 13.0427 11.0232C13.4813 11.0232 13.6765 11.2026 13.7494 11.6041V16.1457C13.6772 16.3485 13.8415 16.5135 14.0443 16.4998H16.2065C16.4093 16.5135 16.5737 16.3485 16.5008 16.1457V11.4515C16.573 9.06448 14.8728 8.2168 13.4167 8.2168ZM15.8387 15.8123H14.4115V11.6041C14.4115 10.7922 13.8869 10.2889 13.0433 10.2889C12.5662 10.2889 12.195 10.4292 11.9392 10.7055C11.5838 11.0905 11.6113 11.5787 11.6876 11.6873V15.8123H10.2975V8.95105H11.6147V9.18205C11.6142 9.25086 11.6331 9.31843 11.6692 9.37699C11.7054 9.43555 11.7573 9.48273 11.819 9.5131C11.8808 9.54348 11.9499 9.55581 12.0183 9.54869C12.0867 9.54157 12.1518 9.51529 12.206 9.47286L12.3022 9.39861C12.5807 9.1793 12.8687 8.95173 13.4173 8.95173C13.9852 8.95173 15.8394 9.13255 15.8394 11.4522V15.8123H15.8387Z" fill="#1D2B4F"/>
<path d="M7.56244 4.78906C6.79106 4.78906 6.16406 5.41606 6.16406 6.18744C6.16406 6.95881 6.79106 7.58581 7.56244 7.58581C8.33381 7.58581 8.96081 6.95881 8.96081 6.18744C8.96081 5.41606 8.33381 4.78906 7.56244 4.78906ZM7.56244 6.85156C7.19669 6.85156 6.89831 6.55319 6.89831 6.18744C6.89831 5.82169 7.19669 5.52331 7.56244 5.52331C7.92819 5.52331 8.22656 5.82169 8.22656 6.18744C8.22656 6.55319 7.92819 6.85156 7.56244 6.85156Z" fill="#1D2B4F"/>
<path d="M8.54431 8.21631H6.50381C6.301 8.21631 6.13668 8.38062 6.18756 8.59375V16.1562C6.13668 16.3487 6.301 16.5137 6.50381 16.5H8.54431C8.74712 16.5137 8.91143 16.3487 8.91143 16.1459V8.58343C8.91143 8.48607 8.87275 8.39269 8.80391 8.32384C8.73506 8.25499 8.64168 8.21631 8.54431 8.21631ZM8.25006 15.8125H6.87093V8.95125H8.25006V15.8125Z" fill="#1D2B4F"/>
<path d="M10.9999 -0.0234375C4.92106 -0.0234375 -0.0234375 4.92106 -0.0234375 10.9999C-0.0234375 17.0788 4.92106 22.0233 10.9999 22.0233C17.0788 22.0233 22.0233 17.0788 22.0233 10.9999C22.0233 4.92106 17.0788 -0.0234375 10.9999 -0.0234375ZM10.9999 21.2891C5.32669 21.2891 0.710813 16.6732 0.710813 10.9999C0.710813 5.32669 5.32669 0.710813 10.9999 0.710813C16.6732 0.710813 21.2891 5.32669 21.2891 10.9999C21.2891 16.6732 16.6732 21.2891 10.9999 21.2891Z" fill="#1D2B4F"/>
</g>
<defs>
<clipPath id="clip0_482_176">
<rect width="22" height="22" fill="white"/>
</clipPath>
</defs>
</svg>
