<svg width="22" height="22" viewBox="0 0 22 22" fill="none" xmlns="http://www.w3.org/2000/svg">
<path d="M11.0001 -0.0234375C4.92195 -0.0234375 -0.0239258 4.92106 -0.0239258 10.9999C-0.0239258 17.0788 4.92195 22.0233 11.0001 22.0233C17.0783 22.0233 22.0242 17.0788 22.0242 10.9999C22.0242 4.92106 17.0783 -0.0234375 11.0001 -0.0234375ZM11.0001 21.2891C5.32689 21.2891 0.711699 16.6732 0.711699 10.9999C0.711699 5.32669 5.32689 0.710813 11.0001 0.710813C16.6734 0.710813 21.2886 5.32669 21.2886 10.9999C21.2886 16.6732 16.6734 21.2891 11.0001 21.2891Z" fill="#1D2B4F"/>
<path d="M17.0462 7.59406C17.1225 7.4529 17.1853 7.3049 17.2339 7.152C17.2564 7.08108 17.2569 7.005 17.2352 6.93381C17.2136 6.86262 17.1708 6.79967 17.1127 6.75327C17.0545 6.70687 16.9836 6.67921 16.9094 6.67392C16.8352 6.66864 16.7611 6.68599 16.697 6.72369C16.3447 6.93297 15.9633 7.08889 15.5653 7.18638C15.0822 6.75034 14.4548 6.50862 13.804 6.50781C13.4504 6.50808 13.1005 6.57975 12.7753 6.7185C12.4501 6.85726 12.1563 7.06026 11.9114 7.31532C11.6666 7.57038 11.4757 7.87226 11.3504 8.20286C11.225 8.53346 11.1677 8.88596 11.1818 9.23925C9.63567 9.0446 8.22376 8.26221 7.23903 7.05438C7.2013 7.00862 7.15308 6.97264 7.09848 6.9495C7.04387 6.92637 6.98448 6.91675 6.92536 6.92148C6.86624 6.9262 6.80914 6.94512 6.7589 6.97664C6.70866 7.00815 6.66677 7.05133 6.63678 7.1025C6.4113 7.48951 6.28874 7.92785 6.28079 8.37568C6.27285 8.82352 6.37979 9.26592 6.59141 9.66069C6.53951 9.66945 6.48964 9.68762 6.44428 9.71431C6.38869 9.74976 6.34293 9.79863 6.31121 9.85643C6.27949 9.91422 6.26283 9.97907 6.26278 10.045C6.26278 10.8253 6.60997 11.5417 7.16959 12.0284L7.14553 12.0525C7.10328 12.1003 7.07421 12.1583 7.06119 12.2207C7.04817 12.2832 7.05165 12.3479 7.07128 12.4086C7.18798 12.7727 7.38282 13.1068 7.64218 13.3877C7.90155 13.6685 8.21916 13.8893 8.57278 14.0346C7.8465 14.3889 7.03371 14.527 6.23116 14.4326C6.14866 14.4242 6.0657 14.4434 5.99529 14.4872C5.92487 14.531 5.87097 14.5969 5.84203 14.6746C5.81424 14.7529 5.81372 14.8383 5.84055 14.9169C5.86738 14.9955 5.91999 15.0628 5.98984 15.1078C7.08091 15.808 8.3502 16.18 9.64666 16.1796C13.8954 16.1796 16.435 12.7283 16.435 9.39188L16.4343 9.27913C16.8461 8.95766 17.2038 8.57237 17.4938 8.13788C17.5377 8.07219 17.5593 7.99411 17.5554 7.91519C17.5514 7.83628 17.5222 7.76072 17.472 7.69971C17.4218 7.6387 17.3533 7.59549 17.2766 7.57646C17.1999 7.55743 17.1191 7.5636 17.0462 7.59406ZM15.8465 8.80063C15.7966 8.8365 15.7565 8.8843 15.7299 8.93967C15.7032 8.99503 15.6908 9.05619 15.6939 9.11756C15.698 9.20831 15.7001 9.30044 15.7001 9.39119C15.7001 12.3667 13.4362 15.4446 9.64734 15.4446C8.9716 15.4449 8.30063 15.3315 7.66253 15.1091C8.42675 14.9627 9.14467 14.635 9.75597 14.1535C9.81547 14.1066 9.85904 14.0424 9.8807 13.9698C9.90236 13.8972 9.90107 13.8197 9.87699 13.7478C9.85291 13.676 9.80723 13.6133 9.74619 13.5684C9.68515 13.5235 9.61173 13.4985 9.53597 13.4969C9.23954 13.4913 8.94858 13.416 8.68657 13.2773C8.42457 13.1385 8.19884 12.9401 8.02759 12.6981C8.20153 12.6864 8.37203 12.6575 8.53772 12.6128C8.61791 12.5914 8.68846 12.5433 8.73785 12.4766C8.78725 12.4099 8.81258 12.3284 8.80971 12.2455C8.80683 12.1625 8.77593 12.083 8.72204 12.0198C8.66815 11.9567 8.59445 11.9137 8.51297 11.8978C8.17817 11.8297 7.86819 11.6719 7.61618 11.4412C7.36418 11.2105 7.17963 10.9156 7.08228 10.5881C7.26516 10.6342 7.45284 10.661 7.64053 10.6672C7.80209 10.6665 7.95197 10.5675 8.00216 10.4121C8.05234 10.2568 7.99322 10.0856 7.85641 9.99481C7.53292 9.77929 7.28384 9.46916 7.1432 9.10678C7.00256 8.74441 6.9772 8.34745 7.07059 7.97013C8.2648 9.19547 9.87735 9.92514 11.5861 10.0134C11.7071 10.0141 11.813 9.97075 11.8865 9.88206C11.9601 9.79338 11.9883 9.67581 11.9622 9.56306C11.8681 9.15813 11.9102 8.73348 12.0818 8.35486C12.2534 7.97623 12.5451 7.66473 12.9116 7.46855C13.2781 7.27238 13.6991 7.20248 14.1093 7.26966C14.5196 7.33684 14.8962 7.53736 15.181 7.84019C15.2237 7.88573 15.2773 7.91966 15.3367 7.93878C15.3961 7.9579 15.4594 7.96159 15.5207 7.9495C15.6341 7.92681 15.7462 7.90069 15.8568 7.87044C15.8069 7.90779 15.7551 7.94245 15.7015 7.97425C15.6302 8.01792 15.5759 8.08458 15.5476 8.16323C15.5192 8.24189 15.5185 8.32785 15.5456 8.40695C15.5726 8.48606 15.6258 8.55358 15.6964 8.5984C15.767 8.64321 15.8507 8.66265 15.9338 8.6535L16.059 8.63769C15.9901 8.69445 15.9192 8.74879 15.8465 8.80063Z" fill="#1D2B4F"/>
</svg>
