<svg width="66" height="66" viewBox="0 0 66 66" fill="none" xmlns="http://www.w3.org/2000/svg">
<circle cx="33" cy="33" r="33" fill="#FB6739" fill-opacity="0.1"/>
<path d="M18.7375 18.9687C18.0875 19.1437 17.5 19.6562 17.2 20.3L17.0312 20.6562V30.7187V40.7812L17.225 41.1875C17.4688 41.7062 17.8563 42.0937 18.375 42.3375L18.7813 42.5312L24.2313 42.55L29.6813 42.5625L29.6563 42.7375C29.6375 42.8312 29.5375 43.5812 29.4375 44.4062C29.3313 45.2312 29.2313 45.9687 29.2125 46.0437C29.1875 46.1875 29.1688 46.1875 28.275 46.1875C27.3938 46.1875 27.3625 46.1937 27.2188 46.3437C27.0188 46.5375 27.0188 46.775 27.2188 46.9687L27.3688 47.125H33H38.6313L38.7813 46.9687C38.9813 46.775 38.9813 46.5375 38.7813 46.3437C38.6375 46.1937 38.6063 46.1875 37.725 46.1875C36.8313 46.1875 36.8125 46.1875 36.7875 46.05C36.7688 45.9687 36.6688 45.2312 36.5625 44.4062C36.4625 43.5812 36.3625 42.8312 36.3438 42.7312L36.3125 42.5625H38.9H41.4813L41.6125 42.4187C41.8063 42.2125 41.7938 41.9187 41.5875 41.7562L41.4188 41.625H30.2875C22.575 41.625 19.0813 41.6062 18.9125 41.5562C18.7813 41.5187 18.55 41.3812 18.4063 41.2437C18.0125 40.8812 17.9375 40.6062 17.9375 39.5187V38.625H33H48.0625V39.5062C48.0625 40.025 48.0313 40.5 47.9875 40.65C47.8813 40.9937 47.4188 41.4687 47.0938 41.5562C46.9375 41.6 46.1188 41.625 44.9375 41.625C43.5375 41.6312 43.0063 41.65 42.9313 41.7062C42.6563 41.9187 42.6438 42.3 42.9063 42.475C43.0313 42.5562 43.3688 42.5687 45.1375 42.55L47.2188 42.5312L47.625 42.3375C48.1438 42.0937 48.5313 41.7062 48.775 41.1875L48.9688 40.7812V30.7187V20.6562L48.8 20.3C48.6063 19.8812 48.2 19.425 47.8313 19.2062C47.2563 18.875 47.3313 18.875 41.575 18.875H36.2438L36.0938 19.0312C35.9063 19.2125 35.8938 19.4312 36.0563 19.6312L36.175 19.7812L41.6063 19.8125L47.0313 19.8437L47.2938 19.9812C47.6125 20.15 47.8938 20.4937 47.9938 20.8062C48.0438 20.9812 48.0625 23.3125 48.0625 29.3687V37.6875H46.9375H45.8125V30.325V22.9625L45.6438 22.6187C45.45 22.2437 45.1063 21.9625 44.7125 21.875C44.3875 21.7937 21.6125 21.7937 21.2875 21.875C20.8938 21.9625 20.55 22.2437 20.3625 22.6187L20.1875 22.9625V30.325V37.6875H19.0625H17.9375V29.3687C17.9375 23.3125 17.9563 20.9812 18.0063 20.8062C18.1063 20.4937 18.3875 20.15 18.7063 19.9812L18.9688 19.8437L26.8438 19.825L34.7125 19.8125L34.8563 19.675C35.05 19.4937 35.0438 19.225 34.8438 19.0312L34.6938 18.875L26.8625 18.8812C20.6438 18.8875 18.9688 18.9 18.7375 18.9687ZM44.5813 22.825C44.8563 22.9687 44.8688 23.0375 44.875 24.325V25.5625H33H21.125V24.325C21.125 23.0375 21.1375 22.9687 21.4063 22.825C21.5938 22.7187 44.3938 22.7187 44.5813 22.825ZM44.875 32.0937V37.6875L43.7375 37.675L42.5938 37.6562L42.5625 36.4812C42.5313 35.4062 42.5188 35.2937 42.4125 35.2125C42.3063 35.1375 41.6188 35.125 38.1188 35.125C34.1125 35.125 33.9438 35.1312 33.8063 35.2437C33.6625 35.3625 33.6563 35.3937 33.6375 36.525L33.6125 37.6875H33H32.3875L32.3625 36.525C32.3438 35.3937 32.3375 35.3625 32.1938 35.2437C32.0563 35.1312 31.8875 35.125 27.8813 35.125C24.3813 35.125 23.6938 35.1375 23.5875 35.2125C23.4813 35.2937 23.4688 35.4062 23.4375 36.4812L23.4063 37.6562L22.2688 37.675L21.125 37.6875V32.0937V26.5H33H44.875V32.0937ZM31.375 36.875V37.6875H27.875H24.375V36.875V36.0625H27.875H31.375V36.875ZM41.625 36.875V37.6875H38.125H34.625V36.875V36.0625H38.125H41.625V36.875ZM35.375 42.575C35.375 42.5875 35.475 43.325 35.5938 44.2187C35.7125 45.1125 35.8125 45.9187 35.8125 46.0125V46.1875H33H30.1875V46.0125C30.1875 45.9187 30.2875 45.1125 30.4063 44.2187C30.525 43.325 30.625 42.5875 30.625 42.575C30.625 42.5687 31.6938 42.5625 33 42.5625C34.3063 42.5625 35.375 42.5687 35.375 42.575Z" fill="#FA7449"/>
<path d="M22.6938 23.4625C22.0688 23.6688 22.0688 24.5813 22.6938 24.7875C22.9688 24.8813 23.2376 24.8 23.4563 24.5625C23.9188 24.05 23.3563 23.2375 22.6938 23.4625Z" fill="#FA7449"/>
<path d="M25.0374 23.4437C24.6312 23.5562 24.4187 23.9937 24.5812 24.3875C24.8812 25.1062 25.9374 24.8937 25.9374 24.1125C25.9374 23.6562 25.4937 23.325 25.0374 23.4437Z" fill="#FA7449"/>
<path d="M27.3499 23.4438C26.9437 23.5563 26.7312 23.9938 26.8937 24.3875C27.0124 24.675 27.2437 24.8313 27.5562 24.825C27.9812 24.8188 28.2499 24.5438 28.2499 24.1188C28.2499 23.6375 27.8187 23.3188 27.3499 23.4438Z" fill="#FA7449"/>
<path d="M23.75 27.9812C23.7 28 23.6063 28.0562 23.55 28.1125C23.4438 28.2 23.4375 28.4125 23.4375 30.95C23.4375 33.6062 23.4438 33.6937 23.5625 33.8125C23.6813 33.9312 23.7688 33.9375 25.5938 33.9375C27.4188 33.9375 27.5063 33.9312 27.625 33.8125C27.7938 33.6437 27.7875 33.3062 27.6188 33.15C27.5 33.0437 27.3563 33.0312 25.9313 33.0125L24.375 32.9937V30.9375V28.875H33H41.625V30.9375V33H35.3375H29.05L28.8625 33.1875C28.7125 33.3437 28.6813 33.4125 28.7188 33.55C28.7375 33.6437 28.8063 33.7687 28.8563 33.825C28.95 33.9312 29.3563 33.9375 35.6375 33.9375C42.2313 33.9375 42.3125 33.9375 42.4375 33.8125C42.5563 33.6937 42.5625 33.6062 42.5625 30.95C42.5625 28.2437 42.5625 28.2062 42.4313 28.0875C42.3 27.975 42.05 27.9687 33.0688 27.9562C27.9938 27.95 23.8 27.9625 23.75 27.9812Z" fill="#FA7449"/>
</svg>
