<svg width="66" height="66" viewBox="0 0 66 66" fill="none" xmlns="http://www.w3.org/2000/svg">
<circle cx="33" cy="33" r="33" fill="#0EBDF4" fill-opacity="0.1"/>
<g clip-path="url(#clip0_743_24)">
<path d="M44.1377 17.2813C42.1877 17.5313 42.0315 17.5625 41.7627 17.7313C40.4627 18.5313 41.119 20.525 42.644 20.425L42.9877 20.4063L42.869 20.5688C42.8065 20.6625 42.2815 21.2188 41.7065 21.8125C38.0815 25.5438 33.8377 28.3313 28.844 30.25C25.8252 31.4063 22.2815 32.25 19.3565 32.5C18.5565 32.5688 18.3315 32.6375 18.0127 32.9063C17.3752 33.4375 17.3627 34.4875 17.9815 35.075C18.3815 35.4563 18.9065 35.525 20.2627 35.375C23.969 34.9688 28.219 33.8063 31.844 32.2C34.0065 31.2438 37.169 29.4813 37.8252 28.8688C38.094 28.6125 38.119 28.4625 37.9315 28.225C37.7127 27.95 37.519 28 36.6002 28.5875C31.9815 31.5313 26.6127 33.525 21.1877 34.3063C19.7565 34.5125 18.9565 34.5563 18.7252 34.4375C18.3127 34.225 18.394 33.6313 18.8565 33.5063C18.9877 33.4688 19.2127 33.4375 19.3565 33.4375C19.9877 33.4375 22.1752 33.1 23.6565 32.775C29.6752 31.45 35.0877 28.8125 39.7565 24.9375C40.7627 24.1 43.1752 21.6813 43.9877 20.7C44.6815 19.8688 44.7315 19.7313 44.469 19.4688C44.2877 19.2813 44.2752 19.2813 43.2502 19.4125C42.569 19.5 42.4252 19.5 42.2752 19.4313C42.0565 19.325 41.9502 19.0625 42.0377 18.8375C42.1565 18.4875 42.269 18.4625 44.5127 18.1813C46.5127 17.9375 46.6315 17.925 46.7815 18.025C46.869 18.0875 46.969 18.2 47.0002 18.2875C47.094 18.525 47.0815 22.5375 46.9877 22.7063C46.8127 23.0438 46.4315 23.1 46.1627 22.8375C46.0065 22.675 46.0002 22.65 46.0002 21.9063C46.0002 21.225 45.9877 21.125 45.869 20.975C45.7815 20.8625 45.6815 20.8125 45.5377 20.8125C45.319 20.8125 45.144 20.975 44.3752 21.875C43.2377 23.2 41.4127 24.9625 39.919 26.1813C39.4065 26.6 39.1127 26.8813 39.0815 26.9875C38.994 27.3438 39.2815 27.6313 39.6315 27.5438C39.8252 27.4938 41.0565 26.4938 42.1627 25.4875C43.0315 24.7 43.769 23.9625 44.6127 23.0375C44.9315 22.6875 45.0627 22.575 45.0627 22.6625C45.0627 22.8688 45.3502 23.4063 45.5502 23.575C46.2502 24.1625 47.3002 24 47.7815 23.225L47.969 22.9188V20.5063C47.969 18.3 47.9565 18.075 47.8565 17.8688C47.594 17.3375 47.0377 16.9938 46.4752 17.0063C46.3315 17.0125 45.2815 17.1375 44.1377 17.2813Z" fill="#55BDE2"/>
<path d="M39.8938 29.0437C39.5438 29.1125 39.5626 28.5375 39.5626 38.7V48.0625H37.7813H36.0001L35.9876 41.4437C35.9688 35.0375 35.9626 34.8187 35.8501 34.6937C35.7313 34.5625 35.6938 34.5625 33.0001 34.5625C30.3063 34.5625 30.2688 34.5625 30.1501 34.6937C30.0376 34.8187 30.0313 35.0375 30.0126 41.4437L30.0001 48.0625H28.2188H26.4376V42.6875C26.4376 37.3938 26.4376 37.3125 26.3126 37.1875C26.1938 37.0687 26.1063 37.0625 23.4751 37.0625H20.7563L20.6313 37.225C20.5001 37.3938 20.5001 37.425 20.5001 42.725V48.0625H18.9063H17.3063L17.1563 48.2188C16.9563 48.4125 16.9563 48.65 17.1563 48.8438L17.3063 49H33.0001H48.6938L48.8438 48.8438C48.9313 48.7625 49.0001 48.6188 49.0001 48.5312C49.0001 48.4437 48.9313 48.3 48.8438 48.2188L48.6938 48.0625H47.0938H45.5001V38.75C45.5001 31.925 45.4813 29.4 45.4313 29.2875C45.3876 29.2 45.2751 29.1 45.1688 29.0625C44.9876 29 40.2063 28.9812 39.8938 29.0437ZM44.5626 39V48.0625H42.5313H40.5001V39V29.9375H42.5313H44.5626V39ZM35.0626 41.7812V48.0625H33.0001H30.9376V41.7812V35.5H33.0001H35.0626V41.7812ZM25.5001 43.0312V48.0625H23.4688H21.4376V43.0312V38H23.4688H25.5001V43.0312Z" fill="#55BDE2"/>
</g>
<defs>
<clipPath id="clip0_743_24">
<rect width="32" height="32" fill="white" transform="translate(17 17)"/>
</clipPath>
</defs>
</svg>
