<svg width="66" height="66" viewBox="0 0 66 66" fill="none" xmlns="http://www.w3.org/2000/svg">
<circle cx="33" cy="33" r="33" fill="#5489F3" fill-opacity="0.12"/>
<g clip-path="url(#clip0_743_25)">
<path d="M17 17.4688V17.9375H17.4688H17.9375V17.4688V17H17.4688H17V17.4688Z" fill="#3D7FF9"/>
<path d="M45 18.2813C43.7 18.65 42.9813 19.9563 43.3687 21.2375C43.4438 21.4813 43.5312 21.7 43.5625 21.7188C43.6 21.7375 43.625 21.7813 43.625 21.8125C43.625 21.8625 40.725 24.9563 39.625 26.0875L39.3875 26.3313L39.0875 26.1938C38.1938 25.7688 37.1812 25.95 36.45 26.6625L36.1125 26.9875L34.5437 25.7063L32.9688 24.4313L32.9313 24.1313C32.8063 23.1563 32.2625 22.45 31.3813 22.1188C30.8375 21.9188 30.1062 21.9625 29.55 22.2375C28.7688 22.6188 28.325 23.3188 28.2625 24.2563L28.2375 24.7313L26.0312 27.7563C24.6562 29.6438 23.7938 30.775 23.7438 30.7563C23.6938 30.7438 23.4688 30.7188 23.2438 30.7063C22.725 30.6625 22.2125 30.8063 21.7688 31.1C21.3875 31.3625 21.1813 31.6188 20.95 32.1125C20.8063 32.4125 20.7812 32.5563 20.7812 33.0313C20.7812 33.5438 20.8 33.6375 20.9875 34.0125C21.4062 34.8625 22.1562 35.3313 23.0938 35.3313C24.0312 35.3313 24.7812 34.8625 25.2 34.0125C25.3875 33.6375 25.4062 33.5438 25.4062 33.0313C25.4062 32.55 25.3812 32.4125 25.2375 32.1063C25.1438 31.9063 24.975 31.6313 24.8688 31.4938C24.7563 31.35 24.7 31.2188 24.725 31.175C24.7875 31.0688 28.5625 25.8625 28.6312 25.7875C28.6625 25.7563 28.8063 25.8438 28.9688 25.9938C29.4187 26.4063 29.8625 26.5875 30.5 26.6125C30.925 26.6313 31.1 26.6125 31.3813 26.5063C31.8375 26.3313 32.1875 26.075 32.45 25.725C32.5625 25.5688 32.6813 25.45 32.7125 25.4563C32.7375 25.4688 33.4375 26.0188 34.2563 26.6875L35.75 27.9V28.2563C35.75 28.7438 35.95 29.3438 36.2312 29.7125C37.3813 31.2125 39.7563 30.8 40.3125 29.0063C40.4813 28.4813 40.4688 28.0625 40.275 27.5313C40.1938 27.2875 40.1125 27.0625 40.1063 27.025C40.1 26.9813 41.0438 25.9563 42.2 24.7313L44.3062 22.5125L44.625 22.675C45.0125 22.8625 45.7063 22.925 46.1812 22.8125C46.6187 22.7063 47.1812 22.3313 47.45 21.9625C47.7875 21.4938 47.9062 21.1188 47.9062 20.5C47.9062 20.025 47.8813 19.9188 47.7 19.55C47.2 18.5375 46.0438 17.9938 45 18.2813ZM46.2375 19.3063C47.0688 19.7313 47.2437 20.8563 46.5813 21.525C46.05 22.0688 45.1375 22.0688 44.6063 21.525C44.3625 21.2813 44.25 21.05 44.2063 20.6938C44.075 19.5938 45.2437 18.8 46.2375 19.3063ZM31.3813 23.1563C31.7312 23.4063 32 23.9063 32 24.3125C32 24.7188 31.7312 25.2188 31.3813 25.4688C31.1375 25.6375 31.0688 25.6563 30.6 25.6563C30.1438 25.6563 30.0563 25.6375 29.825 25.4875C29.3375 25.1625 29.075 24.4438 29.2438 23.9188C29.3625 23.5688 29.65 23.2188 29.9438 23.0688C30.1687 22.9563 30.3 22.9375 30.6687 22.95C31.05 22.9688 31.1562 23 31.3813 23.1563ZM38.4625 26.9625C38.8875 27.0938 39.1812 27.3375 39.3563 27.7375C39.7812 28.6625 39.1187 29.6875 38.0938 29.6875C37.3375 29.6875 36.775 29.1563 36.7063 28.3938C36.6813 28.0813 36.7063 27.9813 36.8563 27.6875C37.0938 27.2188 37.55 26.9125 38.0688 26.8813C38.125 26.875 38.3 26.9125 38.4625 26.9625ZM23.6562 31.7438C23.7938 31.8063 24.0125 31.9688 24.1375 32.1125C24.9437 33.0063 24.3063 34.4 23.0938 34.4C21.8813 34.4 21.2438 33.0063 22.05 32.1125C22.3375 31.7875 22.6938 31.625 23.0938 31.625C23.2687 31.625 23.5187 31.6813 23.6562 31.7438Z" fill="#3D7FF9"/>
<path d="M17 33.9375V49H33H49V48.5312V48.0625H48.4688H47.9375V43.0938V38.125H47.4688H47V43.0938V48.0625H45.5938H44.1875V37.3438V26.625H45.5938H47V31.9062V37.1875H47.4688H47.9375V31.4375V25.6875H45.5938H43.25V36.875V48.0625H41.8438H40.4375V40.75V33.4375H38.0938H35.75V40.75V48.0625H34.3438H32.9375V38.7812V29.5H30.5938H28.25V35.7812V42.0625H28.7188H29.1875V36.25V30.4375H30.5938H32V39.25V48.0625H30.5938H29.1875V45.5312V43H28.7188H28.25V45.5312V48.0625H26.8438H25.4375V43.125V38.1875H23.0938H20.75V43.125V48.0625H19.3438H17.9375V33.4688V18.875H17.4688H17V33.9375ZM39.5 41.2188V48.0625H38.0938H36.6875V41.2188V34.375H38.0938H39.5V41.2188ZM24.5 43.5938V48.0625H23.0938H21.6875V43.5938V39.125H23.0938H24.5V43.5938Z" fill="#3D7FF9"/>
<path d="M37.625 42.4688V42.9375H38.0938H38.5625V42.4688V42H38.0938H37.625V42.4688Z" fill="#3D7FF9"/>
<path d="M37.625 45.2812V46.6875H38.0938H38.5625V45.2812V43.875H38.0938H37.625V45.2812Z" fill="#3D7FF9"/>
<path d="M22.625 46.6562V47.125H23.0938H23.5625V46.6562V46.1875H23.0938H22.625V46.6562Z" fill="#3D7FF9"/>
<path d="M45.125 29.4688V30.875H45.5938H46.0625V29.4688V28.0625H45.5938H45.125V29.4688Z" fill="#3D7FF9"/>
<path d="M30.125 33.2188V34.625H30.5938H31.0625V33.2188V31.8125H30.5938H30.125V33.2188Z" fill="#3D7FF9"/>
<path d="M45.125 32.2812V32.75H45.5938H46.0625V32.2812V31.8125H45.5938H45.125V32.2812Z" fill="#3D7FF9"/>
<path d="M30.125 36.0312V36.5H30.5938H31.0625V36.0312V35.5625H30.5938H30.125V36.0312Z" fill="#3D7FF9"/>
</g>
<defs>
<clipPath id="clip0_743_25">
<rect width="32" height="32" fill="white" transform="translate(17 17)"/>
</clipPath>
</defs>
</svg>
