<svg width="66" height="66" viewBox="0 0 66 66" fill="none" xmlns="http://www.w3.org/2000/svg">
<circle cx="33" cy="33" r="33" fill="#F834CA" fill-opacity="0.1"/>
<g clip-path="url(#clip0_743_26)">
<path d="M32.2436 17.1125C31.2873 17.3625 30.4811 18.1937 30.2248 19.2062L30.1436 19.5312L28.5873 19.5625L27.0373 19.5937L26.9561 19.75C26.9061 19.85 26.8748 20.2 26.8748 20.7625V21.625H24.3873C22.5373 21.625 21.8811 21.6437 21.8248 21.7C21.7186 21.8062 21.7186 48.8187 21.8248 48.925C21.9311 49.0312 44.0685 49.0312 44.1748 48.925C44.281 48.8187 44.281 21.8062 44.1748 21.7C44.1185 21.6437 43.4623 21.625 41.6123 21.625H39.1248V20.7625C39.1248 20.2 39.0935 19.85 39.0436 19.75L38.9623 19.5937L37.4123 19.5625L35.8561 19.5312L35.7686 19.1937C35.4998 18.125 34.5998 17.2562 33.5623 17.0625C33.0998 16.9749 32.7248 16.9874 32.2436 17.1125ZM33.9436 17.8312C34.6311 18.1625 35.1373 18.8812 35.2248 19.6375C35.2873 20.1937 35.2623 20.1875 37.0248 20.1875H38.5186L38.4811 21.45C38.4561 22.15 38.4373 22.9812 38.4373 23.2937V23.875H32.9998H27.5623V23.2937C27.5623 22.9812 27.5436 22.15 27.5186 21.45L27.4811 20.1875H28.9748C30.7248 20.1875 30.7123 20.1937 30.7748 19.6562C30.8748 18.7687 31.4498 18.0312 32.2686 17.7375C32.7436 17.5687 33.4936 17.6062 33.9436 17.8312ZM26.8748 23.2375C26.8748 24.025 26.8936 24.25 26.9748 24.3625L27.0686 24.5H32.9998H38.931L39.0248 24.3625C39.1061 24.25 39.1248 24.025 39.1248 23.2375V22.25H41.406H43.6873V35.3125V48.375H32.9998H22.3123V35.3125V22.25H24.5936H26.8748V23.2375Z" fill="#FE77E1"/>
<path d="M40.9371 28.1374L40.3871 28.7187L39.8246 28.1687C39.2621 27.6187 39.0622 27.5249 38.8872 27.6999C38.7247 27.8624 38.8184 28.0374 39.3746 28.5937L39.9434 29.1624L39.4059 29.7312C38.8434 30.3374 38.7497 30.5562 38.9997 30.6874C39.2059 30.7999 39.3434 30.7124 39.8809 30.1187L40.3934 29.5624L40.9684 30.1249C41.3059 30.4499 41.5996 30.6874 41.6684 30.6874C41.8059 30.6874 41.9996 30.5062 41.9996 30.3687C41.9996 30.3249 41.7434 30.0249 41.4246 29.7062L40.8559 29.1312L41.4059 28.5312C41.9121 27.9749 41.9559 27.9124 41.8996 27.7624C41.8559 27.6437 41.7871 27.5874 41.6684 27.5749C41.5184 27.5562 41.4121 27.6374 40.9371 28.1374Z" fill="#FE77E1"/>
<path d="M29.1625 30.3875C29.0188 30.5375 28.775 30.8125 28.6125 31L28.3188 31.3437L27.7688 30.7937C27.225 30.2562 27.05 30.1625 26.8875 30.325C26.7063 30.5062 26.8063 30.7 27.3688 31.275L27.925 31.8437L27.4 32.4625C27.1125 32.8062 26.875 33.1312 26.875 33.1875C26.875 33.3187 27.0688 33.5 27.2063 33.5C27.2625 33.5 27.5375 33.2312 27.8188 32.9062C28.1 32.5812 28.35 32.3125 28.375 32.3125C28.4 32.3125 28.6375 32.55 28.9 32.8437C29.2813 33.2625 29.4188 33.375 29.5563 33.375C29.7563 33.375 29.875 33.275 29.875 33.1062C29.875 33.0375 29.6188 32.7187 29.3125 32.3875C28.75 31.8 28.7438 31.7937 28.8625 31.6625C29.325 31.1375 29.6813 30.7 29.7438 30.575C29.825 30.4187 29.7563 30.225 29.5875 30.1625C29.4375 30.1062 29.4375 30.1062 29.1625 30.3875Z" fill="#FE77E1"/>
<path d="M35.7686 31.7687C34.7186 32.425 34.5623 32.5437 34.5623 32.6812C34.5623 32.8062 34.7498 33 34.8748 33C34.9186 33 35.2748 32.8062 35.6623 32.5625L36.3748 32.125V32.3187C36.3748 32.6312 36.1373 33.7125 35.9623 34.2C35.2311 36.2312 33.7561 37.8562 31.8061 38.775C30.8623 39.225 30.0186 39.4312 28.7373 39.525C28.3248 39.5562 28.3123 39.55 28.3123 39.4125C28.3123 39.1562 27.9436 38.5125 27.6686 38.2875C27.2811 37.9687 26.9186 37.8437 26.4061 37.8437C25.8186 37.85 25.4061 38.0312 24.9998 38.4812C24.3248 39.2187 24.3248 40.2812 25.0123 41.0312C25.9811 42.0937 27.7061 41.7562 28.2186 40.4125L28.3248 40.1437L29.0498 40.1062C31.6311 39.9687 34.1373 38.5125 35.5873 36.3125C36.2123 35.3687 36.7436 34.0437 36.8873 33.0875C36.9248 32.8187 36.9748 32.5687 36.9998 32.5437C37.0248 32.5125 37.2248 32.7312 37.4373 33.025C37.7623 33.4687 37.8561 33.5625 37.9936 33.5625C38.1936 33.5625 38.3123 33.4625 38.3123 33.2937C38.3123 33.2312 37.9873 32.7437 37.5936 32.2125C37.0248 31.45 36.8436 31.25 36.7373 31.2562C36.6561 31.2562 36.2248 31.4875 35.7686 31.7687ZM27.1498 38.6687C27.9686 39.2437 27.8873 40.4437 27.0061 40.8875C26.6061 41.0937 26.2686 41.1125 25.9061 40.9437C25.6373 40.825 25.2811 40.4562 25.1811 40.2062C25.0998 39.9812 25.1123 39.4625 25.2123 39.2312C25.5186 38.5062 26.5061 38.2187 27.1498 38.6687Z" fill="#FE77E1"/>
<path d="M38.9685 36.5562C38.4998 36.7687 38.1935 37.3062 38.281 37.7687C38.4623 38.725 39.5623 39.1 40.2498 38.4437C40.7123 38.0062 40.7435 37.325 40.3248 36.8625C39.9373 36.4312 39.4685 36.325 38.9685 36.5562ZM39.8373 37.225C40.256 37.65 39.7873 38.35 39.2373 38.1187C39.0435 38.0375 38.8748 37.7812 38.8748 37.5625C38.8748 37.4875 38.956 37.3437 39.056 37.2437C39.2998 37.0062 39.606 36.9937 39.8373 37.225Z" fill="#FE77E1"/>
<path d="M35.6437 41.825L35.0687 42.4L34.5125 41.8562C34.175 41.5312 33.9 41.3125 33.825 41.3125C33.6687 41.3125 33.5 41.4687 33.5 41.6187C33.5 41.6812 33.7562 41.975 34.0625 42.275C34.375 42.5812 34.625 42.8437 34.625 42.8625C34.625 42.8812 34.3875 43.1437 34.0937 43.4437C33.7937 43.7562 33.5625 44.05 33.5625 44.1187C33.5625 44.2687 33.7187 44.4375 33.8625 44.4375C33.9187 44.4375 34.225 44.1812 34.5437 43.8625L35.1187 43.2937L35.6875 43.8312C36.2562 44.375 36.4437 44.4688 36.6125 44.3C36.775 44.1375 36.6812 43.9625 36.1125 43.3937L35.5375 42.8125L36.0812 42.2625C36.6312 41.7 36.725 41.5 36.55 41.325C36.3875 41.1625 36.2125 41.2562 35.6437 41.825Z" fill="#FE77E1"/>
</g>
<defs>
<clipPath id="clip0_743_26">
<rect width="32" height="32" fill="white" transform="translate(17 17)"/>
</clipPath>
</defs>
</svg>
