<svg width="50" height="50" viewBox="0 0 50 50" fill="none" xmlns="http://www.w3.org/2000/svg">
<circle cx="25" cy="25" r="25" fill="#131E3A"/>
<path d="M10.48 32C9.952 32 9.544 31.864 9.256 31.592C8.984 31.304 8.848 30.896 8.848 30.368V16.712C8.848 16.184 8.984 15.784 9.256 15.512C9.544 15.224 9.952 15.08 10.48 15.08H16.24C17.424 15.08 18.432 15.256 19.264 15.608C20.096 15.96 20.728 16.464 21.16 17.12C21.608 17.776 21.832 18.56 21.832 19.472C21.832 20.496 21.536 21.36 20.944 22.064C20.352 22.768 19.544 23.24 18.52 23.48V23.12C19.704 23.296 20.624 23.744 21.28 24.464C21.936 25.184 22.264 26.12 22.264 27.272C22.264 28.776 21.752 29.944 20.728 30.776C19.72 31.592 18.312 32 16.504 32H10.48ZM11.8 29.672H16.12C17.208 29.672 18.008 29.464 18.52 29.048C19.032 28.616 19.288 27.976 19.288 27.128C19.288 26.264 19.032 25.624 18.52 25.208C18.008 24.792 17.208 24.584 16.12 24.584H11.8V29.672ZM11.8 22.256H15.712C16.768 22.256 17.552 22.056 18.064 21.656C18.592 21.24 18.856 20.632 18.856 19.832C18.856 19.032 18.592 18.432 18.064 18.032C17.552 17.616 16.768 17.408 15.712 17.408H11.8V22.256Z" fill="white"/>
<path d="M25.5394 32.192C25.1554 32.192 24.8434 32.104 24.6034 31.928C24.3794 31.752 24.2434 31.52 24.1954 31.232C24.1474 30.928 24.2034 30.592 24.3634 30.224L30.6994 16.184C30.9074 15.72 31.1554 15.392 31.4434 15.2C31.7474 14.992 32.0914 14.888 32.4754 14.888C32.8434 14.888 33.1714 14.992 33.4594 15.2C33.7634 15.392 34.0194 15.72 34.2274 16.184L40.5874 30.224C40.7634 30.592 40.8274 30.928 40.7794 31.232C40.7314 31.536 40.5954 31.776 40.3714 31.952C40.1474 32.112 39.8514 32.192 39.4834 32.192C39.0354 32.192 38.6834 32.088 38.4274 31.88C38.1874 31.656 37.9714 31.32 37.7794 30.872L36.2194 27.248L37.5154 28.088H27.3874L28.6834 27.248L27.1474 30.872C26.9394 31.336 26.7234 31.672 26.4994 31.88C26.2754 32.088 25.9554 32.192 25.5394 32.192ZM32.4274 18.416L29.0674 26.408L28.4434 25.64H36.4594L35.8594 26.408L32.4754 18.416H32.4274Z" fill="#FB6739"/>
</svg>
